<mxfile host="app.diagrams.net" agent="Mozilla/5.0 (Macintosh; Intel Mac OS X 10_15_7) AppleWebKit/537.36 (KHTML, like Gecko) Chrome/134.0.0.0 Safari/537.36" version="26.1.1">
  <diagram name="Page-1" id="IEeU7vvbA8pHSe_ctTYq">
    <mxGraphModel grid="1" page="1" gridSize="10" guides="1" tooltips="1" connect="0" arrows="1" fold="1" pageScale="1" pageWidth="1169" pageHeight="827" math="0" shadow="0">
      <root>
        <mxCell id="0" />
        <mxCell id="1" parent="0" />
        <mxCell id="jNv-1I2shVDkQpE-fSoV-22" value="Tracks Order Status" style="curved=1;startArrow=none;endArrow=block;exitX=0;exitY=0.1;entryX=0;entryY=0.64;rounded=0;" edge="1" parent="1">
          <mxGeometry relative="1" as="geometry">
            <Array as="points">
              <mxPoint x="20" y="616" />
              <mxPoint x="20" y="490" />
            </Array>
            <mxPoint x="455" y="434.55999999999995" as="targetPoint" />
          </mxGeometry>
        </mxCell>
        <mxCell id="jNv-1I2shVDkQpE-fSoV-26" value="Order Processing" style="ellipse;aspect=fixed;strokeWidth=2;whiteSpace=wrap;fillColor=#dae8fc;strokeColor=#6c8ebf;" vertex="1" parent="1">
          <mxGeometry x="535" y="295" width="135" height="135" as="geometry" />
        </mxCell>
        <mxCell id="jNv-1I2shVDkQpE-fSoV-27" value="User Management" style="ellipse;aspect=fixed;strokeWidth=2;whiteSpace=wrap;fillColor=#dae8fc;strokeColor=#6c8ebf;" vertex="1" parent="1">
          <mxGeometry x="600" y="540" width="142" height="142" as="geometry" />
        </mxCell>
        <mxCell id="jNv-1I2shVDkQpE-fSoV-29" value="Menu Management" style="ellipse;aspect=fixed;strokeWidth=2;whiteSpace=wrap;fillColor=#dae8fc;strokeColor=#6c8ebf;" vertex="1" parent="1">
          <mxGeometry x="992" y="350" width="148" height="148" as="geometry" />
        </mxCell>
        <mxCell id="jNv-1I2shVDkQpE-fSoV-36" value="Delivery Management" style="ellipse;aspect=fixed;strokeWidth=2;whiteSpace=wrap;fillColor=#dae8fc;strokeColor=#6c8ebf;" vertex="1" parent="1">
          <mxGeometry x="670" y="100" width="169" height="169" as="geometry" />
        </mxCell>
        <mxCell id="jNv-1I2shVDkQpE-fSoV-43" value="" style="curved=1;startArrow=none;endArrow=block;rounded=0;" edge="1" parent="1" source="jNv-1I2shVDkQpE-fSoV-27">
          <mxGeometry relative="1" as="geometry">
            <Array as="points" />
            <mxPoint x="960" y="721" as="targetPoint" />
          </mxGeometry>
        </mxCell>
        <mxCell id="jNv-1I2shVDkQpE-fSoV-44" value="" style="curved=1;startArrow=none;endArrow=block;rounded=0;" edge="1" parent="1">
          <mxGeometry x="0.0097" relative="1" as="geometry">
            <Array as="points" />
            <mxPoint x="1160" y="438" as="sourcePoint" />
            <mxPoint x="1410" y="438" as="targetPoint" />
            <mxPoint as="offset" />
          </mxGeometry>
        </mxCell>
        <mxCell id="jNv-1I2shVDkQpE-fSoV-46" value="Request to Delivery Agents" style="curved=1;startArrow=none;endArrow=block;exitX=0.388;exitY=0.05;rounded=0;exitDx=0;exitDy=0;exitPerimeter=0;" edge="1" parent="1">
          <mxGeometry x="0.2593" y="-30" relative="1" as="geometry">
            <Array as="points">
              <mxPoint x="817.92" y="-20" />
            </Array>
            <mxPoint x="789.9999999999999" y="107" as="sourcePoint" />
            <mxPoint x="957.92" y="-20" as="targetPoint" />
            <mxPoint as="offset" />
          </mxGeometry>
        </mxCell>
        <object label="" tags="Fetch Data" id="jNv-1I2shVDkQpE-fSoV-77">
          <mxCell style="edgeStyle=orthogonalEdgeStyle;rounded=0;orthogonalLoop=1;jettySize=auto;html=1;" edge="1" parent="1">
            <mxGeometry relative="1" as="geometry">
              <mxPoint x="1150" y="409" as="targetPoint" />
              <mxPoint x="1410" y="409" as="sourcePoint" />
            </mxGeometry>
          </mxCell>
        </object>
        <mxCell id="jNv-1I2shVDkQpE-fSoV-49" value="" style="line;strokeWidth=2;html=1;" vertex="1" parent="1">
          <mxGeometry x="1440" y="390" width="160" height="10" as="geometry" />
        </mxCell>
        <mxCell id="jNv-1I2shVDkQpE-fSoV-51" value="" style="line;strokeWidth=2;html=1;" vertex="1" parent="1">
          <mxGeometry x="1440" y="445" width="160" height="10" as="geometry" />
        </mxCell>
        <mxCell id="jNv-1I2shVDkQpE-fSoV-52" value="&lt;font style=&quot;font-size: 14px;&quot;&gt;Menu Database&lt;/font&gt;" style="text;strokeColor=none;align=center;fillColor=none;html=1;verticalAlign=middle;whiteSpace=wrap;rounded=0;" vertex="1" parent="1">
          <mxGeometry x="1450" y="409" width="120" height="30" as="geometry" />
        </mxCell>
        <mxCell id="jNv-1I2shVDkQpE-fSoV-55" value="" style="line;strokeWidth=2;html=1;" vertex="1" parent="1">
          <mxGeometry x="1150" y="159.5" width="160" height="10" as="geometry" />
        </mxCell>
        <mxCell id="jNv-1I2shVDkQpE-fSoV-57" value="" style="line;strokeWidth=2;html=1;" vertex="1" parent="1">
          <mxGeometry x="1150" y="199.5" width="160" height="10" as="geometry" />
        </mxCell>
        <mxCell id="jNv-1I2shVDkQpE-fSoV-58" value="&lt;font style=&quot;font-size: 14px;&quot;&gt;Orders Database&lt;/font&gt;" style="text;strokeColor=none;align=center;fillColor=none;html=1;verticalAlign=middle;whiteSpace=wrap;rounded=0;" vertex="1" parent="1">
          <mxGeometry x="1160" y="169.5" width="120" height="30" as="geometry" />
        </mxCell>
        <mxCell id="jNv-1I2shVDkQpE-fSoV-66" value="" style="line;strokeWidth=2;html=1;" vertex="1" parent="1">
          <mxGeometry x="980" y="696" width="160" height="10" as="geometry" />
        </mxCell>
        <mxCell id="jNv-1I2shVDkQpE-fSoV-67" value="" style="line;strokeWidth=2;html=1;" vertex="1" parent="1">
          <mxGeometry x="980" y="740" width="160" height="10" as="geometry" />
        </mxCell>
        <mxCell id="jNv-1I2shVDkQpE-fSoV-68" value="User Database" style="text;strokeColor=none;align=center;fillColor=none;html=1;verticalAlign=middle;whiteSpace=wrap;rounded=0;" vertex="1" parent="1">
          <mxGeometry x="1010" y="706" width="100" height="30" as="geometry" />
        </mxCell>
        <mxCell id="jNv-1I2shVDkQpE-fSoV-85" value="View/Display Menu" style="curved=1;startArrow=none;endArrow=block;exitX=0.388;exitY=0.05;rounded=0;exitDx=0;exitDy=0;exitPerimeter=0;" edge="1" parent="1">
          <mxGeometry x="0.2593" y="-30" relative="1" as="geometry">
            <Array as="points">
              <mxPoint x="1140" y="243" />
            </Array>
            <mxPoint x="1112.08" y="370" as="sourcePoint" />
            <mxPoint x="1370" y="250" as="targetPoint" />
            <mxPoint as="offset" />
          </mxGeometry>
        </mxCell>
        <mxCell id="jNv-1I2shVDkQpE-fSoV-88" value="" style="curved=1;startArrow=none;endArrow=block;rounded=0;" edge="1" parent="1">
          <mxGeometry relative="1" as="geometry">
            <Array as="points" />
            <mxPoint x="850" y="180" as="sourcePoint" />
            <mxPoint x="1140" y="180" as="targetPoint" />
          </mxGeometry>
        </mxCell>
        <mxCell id="jNv-1I2shVDkQpE-fSoV-89" value="" style="curved=1;startArrow=none;endArrow=block;rounded=0;exitX=0.906;exitY=0.154;exitDx=0;exitDy=0;exitPerimeter=0;" edge="1" parent="1" source="jNv-1I2shVDkQpE-fSoV-26">
          <mxGeometry x="-0.0053" relative="1" as="geometry">
            <Array as="points" />
            <mxPoint x="980" y="330.33000000000004" as="sourcePoint" />
            <mxPoint x="1160" y="220" as="targetPoint" />
            <mxPoint as="offset" />
          </mxGeometry>
        </mxCell>
        <mxCell id="jNv-1I2shVDkQpE-fSoV-90" value="" style="curved=1;startArrow=none;endArrow=block;rounded=0;" edge="1" parent="1">
          <mxGeometry x="-0.0067" relative="1" as="geometry">
            <Array as="points" />
            <mxPoint x="1140" y="210" as="sourcePoint" />
            <mxPoint x="840" y="210" as="targetPoint" />
            <mxPoint as="offset" />
          </mxGeometry>
        </mxCell>
        <mxCell id="jNv-1I2shVDkQpE-fSoV-92" value="" style="curved=1;startArrow=none;endArrow=block;rounded=0;" edge="1" parent="1" source="jNv-1I2shVDkQpE-fSoV-26">
          <mxGeometry x="-0.0031" relative="1" as="geometry">
            <Array as="points" />
            <mxPoint x="950" y="450" as="sourcePoint" />
            <mxPoint x="1040" y="690" as="targetPoint" />
            <mxPoint as="offset" />
          </mxGeometry>
        </mxCell>
        <mxCell id="jNv-1I2shVDkQpE-fSoV-93" value="0.1" style="text;strokeColor=none;align=center;fillColor=none;html=1;verticalAlign=middle;whiteSpace=wrap;rounded=0;" vertex="1" parent="1">
          <mxGeometry x="632.5" y="620" width="60" height="30" as="geometry" />
        </mxCell>
        <mxCell id="jNv-1I2shVDkQpE-fSoV-95" value="0.3" style="text;strokeColor=none;align=center;fillColor=none;html=1;verticalAlign=middle;whiteSpace=wrap;rounded=0;" vertex="1" parent="1">
          <mxGeometry x="1036" y="430" width="60" height="30" as="geometry" />
        </mxCell>
        <mxCell id="jNv-1I2shVDkQpE-fSoV-97" value="0.4" style="text;strokeColor=none;align=center;fillColor=none;html=1;verticalAlign=middle;whiteSpace=wrap;rounded=0;" vertex="1" parent="1">
          <mxGeometry x="720" y="189.5" width="60" height="30" as="geometry" />
        </mxCell>
        <mxCell id="jNv-1I2shVDkQpE-fSoV-98" value="Create/Edit Profile" style="curved=1;startArrow=none;endArrow=block;exitX=0.388;exitY=0.05;rounded=0;exitDx=0;exitDy=0;exitPerimeter=0;" edge="1" parent="1">
          <mxGeometry x="0.2591" y="-30" relative="1" as="geometry">
            <Array as="points">
              <mxPoint x="460" y="609" />
            </Array>
            <mxPoint x="432.0799999999999" y="736" as="sourcePoint" />
            <mxPoint x="600" y="609" as="targetPoint" />
            <mxPoint as="offset" />
          </mxGeometry>
        </mxCell>
        <mxCell id="jNv-1I2shVDkQpE-fSoV-100" value="0.2" style="text;strokeColor=none;align=center;fillColor=none;html=1;verticalAlign=middle;whiteSpace=wrap;rounded=0;" vertex="1" parent="1">
          <mxGeometry x="572.5" y="360" width="60" height="30" as="geometry" />
        </mxCell>
        <mxCell id="jNv-1I2shVDkQpE-fSoV-101" value="Restaurant/Dish Information" style="curved=1;startArrow=none;endArrow=block;rounded=0;entryX=0.015;entryY=0.377;entryDx=0;entryDy=0;entryPerimeter=0;exitX=0.994;exitY=0.574;exitDx=0;exitDy=0;exitPerimeter=0;" edge="1" parent="1" source="jNv-1I2shVDkQpE-fSoV-26" target="jNv-1I2shVDkQpE-fSoV-29">
          <mxGeometry relative="1" as="geometry">
            <Array as="points" />
            <mxPoint x="772" y="379" as="sourcePoint" />
            <mxPoint x="1062" y="379" as="targetPoint" />
          </mxGeometry>
        </mxCell>
        <mxCell id="jNv-1I2shVDkQpE-fSoV-104" value="Order Request" style="curved=1;startArrow=none;endArrow=block;rounded=0;" edge="1" parent="1">
          <mxGeometry x="0.2593" y="-30" relative="1" as="geometry">
            <Array as="points">
              <mxPoint x="394.99999999999994" y="340" />
            </Array>
            <mxPoint x="360" y="490" as="sourcePoint" />
            <mxPoint x="535" y="340" as="targetPoint" />
            <mxPoint as="offset" />
          </mxGeometry>
        </mxCell>
        <mxCell id="jNv-1I2shVDkQpE-fSoV-105" value="Request to Restaurant" style="curved=1;startArrow=none;endArrow=block;exitX=0.388;exitY=0.05;rounded=0;exitDx=0;exitDy=0;exitPerimeter=0;" edge="1" parent="1">
          <mxGeometry x="0.2593" y="-30" relative="1" as="geometry">
            <Array as="points">
              <mxPoint x="550" y="510" />
            </Array>
            <mxPoint x="572.92" y="420" as="sourcePoint" />
            <mxPoint x="409.9999999999999" y="547" as="targetPoint" />
            <mxPoint as="offset" />
          </mxGeometry>
        </mxCell>
        <mxCell id="jNv-1I2shVDkQpE-fSoV-106" value="Assign Delivery Partner" style="curved=1;startArrow=none;endArrow=block;exitX=0.388;exitY=0.05;rounded=0;exitDx=0;exitDy=0;exitPerimeter=0;" edge="1" parent="1">
          <mxGeometry x="0.2593" y="-30" relative="1" as="geometry">
            <Array as="points">
              <mxPoint x="587.92" y="180" />
            </Array>
            <mxPoint x="559.9999999999999" y="307" as="sourcePoint" />
            <mxPoint x="670" y="180" as="targetPoint" />
            <mxPoint as="offset" />
          </mxGeometry>
        </mxCell>
      </root>
    </mxGraphModel>
  </diagram>
</mxfile>
